<svg width="1440" height="906" viewBox="0 0 1440 906" fill="none" xmlns="http://www.w3.org/2000/svg">
<g clip-path="url(#clip0_1_247)" filter="url(#filter0_n_1_247)">
<path d="M1615 0H0V906H1615V0Z" fill="#190626"/>
<path opacity="0.24" d="M602.774 400.758C602.774 399.684 603.698 398.81 604.838 398.81C605.979 398.81 606.902 399.682 606.902 400.758C606.902 401.835 605.979 402.706 604.838 402.706C603.698 402.706 602.774 401.833 602.774 400.758Z" fill="white"/>
<path d="M306.363 682.648C320.218 660.945 312.808 632.752 289.812 619.676C266.816 606.6 236.942 613.593 223.087 635.296C209.232 656.999 216.642 685.192 239.638 698.268C262.634 711.344 292.508 704.35 306.363 682.648Z" fill="#AC80CC"/>
<path d="M276.718 703.411C279.727 702.686 282.592 701.701 285.307 700.505C262.908 701.307 242.174 687.332 236.408 666.004C230.539 644.295 242.149 622.261 262.9 613.119C259.517 613.241 256.096 613.69 252.682 614.513C226.67 620.777 210.964 645.755 217.602 670.304C224.239 694.853 250.706 709.675 276.718 703.411Z" fill="#6A0DAD"/>
<path d="M253.346 652.608C255.704 653.581 256.779 656.172 255.748 658.397C254.717 660.623 251.972 661.637 249.614 660.664C247.256 659.691 246.181 657.1 247.212 654.875C248.243 652.65 250.99 651.635 253.346 652.608Z" fill="#6A0DAD"/>
<path d="M248.045 644.99C249.472 645.579 250.123 647.147 249.499 648.493C248.875 649.839 247.214 650.454 245.787 649.865C244.361 649.276 243.71 647.708 244.334 646.362C244.958 645.018 246.619 644.403 248.045 644.99Z" fill="#6A0DAD"/>
<path d="M302.733 672.589C304.159 673.178 304.81 674.745 304.186 676.092C303.562 677.438 301.901 678.052 300.475 677.463C299.048 676.874 298.397 675.307 299.021 673.961C299.643 672.614 301.306 672.002 302.733 672.589Z" fill="#6A0DAD"/>
<path d="M243.46 660.402C244.309 660.751 244.695 661.684 244.324 662.484C243.954 663.284 242.965 663.649 242.118 663.299C241.269 662.949 240.884 662.016 241.254 661.217C241.625 660.416 242.612 660.052 243.46 660.402Z" fill="#6A0DAD"/>
<path d="M305.138 663.585C305.987 663.935 306.373 664.868 306.002 665.667C305.632 666.468 304.643 666.832 303.796 666.483C302.948 666.133 302.562 665.2 302.932 664.401C303.303 663.6 304.292 663.236 305.138 663.585Z" fill="#6A0DAD"/>
<path d="M1190.58 347.915C1193.76 335.192 1185.42 322.443 1171.94 319.439C1158.46 316.435 1144.95 324.313 1141.76 337.036C1138.58 349.758 1146.93 362.507 1160.41 365.511C1173.89 368.515 1187.4 360.637 1190.58 347.915Z" fill="#C676FF"/>
<path d="M1166.14 318.738C1163.3 318.738 1160.58 319.204 1158.04 320.025C1168.23 323.031 1175.63 332.009 1175.63 342.62C1175.63 353.012 1168.52 361.82 1158.65 365.004C1161.02 365.702 1163.53 366.079 1166.14 366.079C1179.99 366.079 1191.22 355.482 1191.22 342.408C1191.22 329.335 1179.99 318.738 1166.14 318.738Z" fill="#6A0DAD"/>
<path d="M1166.14 318.738C1164.79 318.738 1163.46 318.869 1162.17 319.063C1174.91 320.182 1184.9 330.297 1184.9 342.62C1184.9 354.413 1175.75 364.163 1163.79 365.964C1164.56 366.033 1165.35 366.077 1166.14 366.077C1179.99 366.077 1191.22 355.48 1191.22 342.407C1191.22 329.335 1179.99 318.738 1166.14 318.738Z" fill="#6A0DAD"/>
<path d="M1156.5 351.943C1157.17 350.506 1158.95 349.854 1160.47 350.49C1162 351.124 1162.69 352.806 1162.01 354.243C1161.34 355.681 1159.56 356.332 1158.04 355.696C1156.51 355.062 1155.82 353.382 1156.5 351.943Z" fill="#6A0DAD"/>
<path d="M1153.49 348C1153.94 347.341 1154.87 347.152 1155.57 347.578C1156.27 348.004 1156.47 348.886 1156.02 349.546C1155.57 350.206 1154.63 350.394 1153.94 349.968C1153.24 349.542 1153.03 348.66 1153.49 348Z" fill="#6A0DAD"/>
<path d="M1148.48 334.805C1148.93 334.146 1149.86 333.955 1150.56 334.383C1151.26 334.811 1151.46 335.691 1151.01 336.351C1150.56 337.01 1149.62 337.199 1148.93 336.773C1148.23 336.345 1148.03 335.465 1148.48 334.805Z" fill="#6A0DAD"/>
<path d="M365.724 252.151C367.879 231.21 351.639 212.585 329.451 210.551C307.262 208.516 287.527 223.843 285.371 244.783C283.215 265.724 299.455 284.349 321.644 286.384C343.833 288.418 363.568 273.092 365.724 252.151Z" fill="#C084FC"/>
<path d="M365.724 252.151C367.879 231.21 351.639 212.585 329.451 210.551C307.262 208.516 287.527 223.843 285.371 244.783C283.215 265.724 299.455 284.349 321.644 286.384C343.833 288.418 363.568 273.092 365.724 252.151Z" fill="#C084FC"/>
<path d="M365.834 249.685C360.325 262.126 347.976 271.415 332.766 272.915C310.594 275.1 290.741 259.908 288.427 238.984C288.233 237.233 288.214 235.506 288.272 233.794C285.751 239.487 284.658 245.84 285.386 252.41C287.701 273.335 307.552 288.527 329.724 286.344C350.04 284.34 365.21 268.432 365.834 249.685Z" fill="#6A0DAD"/>
<path d="M423.374 273.026C425.281 266.276 401.17 254.027 365.396 242.486C365.507 243.149 365.602 243.82 365.676 244.496C365.907 246.585 365.903 248.641 365.776 250.673C377.926 255.641 385.193 260.282 384.366 263.214C382.847 268.592 354.696 266.178 321.49 257.825C288.283 249.471 262.594 238.34 264.112 232.962C264.997 229.829 274.928 229.346 289.619 231.134C290.917 228.737 292.49 226.49 294.281 224.41C255.754 217.134 227.06 216.232 225.106 223.15C222.602 232.016 264.955 250.368 319.706 264.141C374.457 277.914 420.871 281.892 423.374 273.026Z" fill="url(#paint0_linear_1_247)"/>
<path d="M328.411 222.328C327.209 220.847 327.503 218.729 329.072 217.593C330.638 216.457 332.885 216.736 334.089 218.216C335.292 219.695 334.997 221.815 333.428 222.951C331.859 224.085 329.613 223.806 328.411 222.328Z" fill="#6A0DAD"/>
<path d="M296.097 240.406C296.259 239.246 297.388 238.429 298.617 238.581C299.845 238.733 300.711 239.799 300.55 240.959C300.389 242.118 299.262 242.935 298.031 242.783C296.8 242.631 295.936 241.566 296.097 240.406Z" fill="#6A0DAD"/>
<path d="M356.706 250.303C356.482 250.801 355.873 251.035 355.345 250.823C354.817 250.611 354.569 250.037 354.794 249.538C355.017 249.04 355.627 248.806 356.155 249.018C356.681 249.23 356.929 249.805 356.706 250.303Z" fill="#6A0DAD"/>
<path d="M63.2441 416.763C61.4527 405.456 69.7145 394.921 81.6953 393.23C93.6761 391.54 104.839 399.337 106.63 410.644C108.422 421.951 100.16 432.485 88.181 434.176C76.1983 435.865 65.0354 428.07 63.2441 416.763Z" fill="#FFD3E8"/>
<path d="M88.1789 434.176C89.8148 433.946 91.3719 433.536 92.8522 432.996C82.8375 432.317 74.2973 425.185 72.7498 415.422C71.2042 405.659 77.16 396.483 86.5277 393.069C84.9456 392.962 83.329 393 81.6951 393.23C69.7143 394.921 61.4544 405.456 63.2439 416.763C65.0352 428.069 76.1981 435.865 88.1789 434.176Z" fill="#FF6CB2"/>
<path d="M87.39 426.756C87.1327 425.129 88.3212 423.61 90.0473 423.368C91.7734 423.125 93.3804 424.246 93.6377 425.875C93.8949 427.502 92.7065 429.021 90.9804 429.264C89.2562 429.507 87.6492 428.383 87.39 426.756Z" fill="#FF6CB2"/>
<path d="M95.694 422.193C95.5519 421.3 96.2047 420.467 97.1512 420.334C98.0978 420.2 98.9791 420.816 99.1212 421.71C99.2632 422.603 98.6104 423.435 97.6639 423.569C96.7173 423.703 95.8361 423.087 95.694 422.193Z" fill="#FF6CB2"/>
<path opacity="0.24" d="M1558.44 446.179L1233.45 127.275C1232.45 126.07 1231.33 124.966 1230.1 123.988C1226.05 120.786 1220.83 118.872 1215.13 118.947C1202.52 119.108 1192.44 128.887 1192.61 140.789C1192.7 147.094 1195.67 152.712 1200.3 156.595C1201.89 157.849 1532.26 446.518 1532.26 446.518L1558.44 446.179Z" fill="url(#paint1_linear_1_247)"/>
<path d="M1192.66 148.457C1192.66 148.457 1198.49 168.286 1214.82 169.366L1192.66 148.457Z" fill="#FF6CB2"/>
<path d="M1223.9 118.985C1223.9 118.985 1244.91 124.482 1246.05 139.894L1223.9 118.985Z" fill="#FF6CB2"/>
<path d="M1234.09 132.577L1207.06 158.088C1205.82 159.258 1203.8 159.258 1202.56 158.088L1172.06 129.301C1165.83 123.419 1164.35 106.783 1164.01 97.7972C1163.89 94.512 1166.73 91.8285 1170.22 91.9444C1179.74 92.2615 1197.36 93.6568 1203.6 99.5385L1234.09 128.315C1235.33 129.493 1235.33 131.401 1234.09 132.577Z" fill="white"/>
<path opacity="0.43" d="M1165.77 93.5988C1164.63 94.6678 1163.95 96.1609 1164.01 97.8062C1164.35 106.794 1165.83 123.422 1172.06 129.302L1202.55 158.079C1203.8 159.255 1205.82 159.255 1207.07 158.079L1220.58 145.328L1165.77 93.5988Z" fill="#8E8E91"/>
<path d="M1185.8 121.915C1191.37 121.915 1195.88 117.654 1195.88 112.398C1195.88 107.142 1191.37 102.882 1185.8 102.882C1180.23 102.882 1175.71 107.142 1175.71 112.398C1175.71 117.654 1180.23 121.915 1185.8 121.915Z" fill="#FF6CB2"/>
<path d="M1189.49 107.868C1192.16 109.78 1192.68 113.368 1190.65 115.885C1188.63 118.4 1184.83 118.891 1182.16 116.979C1179.49 115.067 1178.97 111.48 1181 108.963C1183.02 106.446 1186.83 105.957 1189.49 107.868Z" fill="#F2F2F6"/>
<path d="M1189.49 107.868C1192.16 109.78 1192.68 113.368 1190.65 115.885C1188.63 118.4 1184.83 118.891 1182.16 116.979C1179.49 115.067 1178.97 111.48 1181 108.963C1183.02 106.446 1186.83 105.957 1189.49 107.868Z" fill="#E6E6FF"/>
<path d="M1180.95 106.165C1181.43 106.616 1181.43 107.348 1180.95 107.799C1180.47 108.251 1179.7 108.251 1179.22 107.799C1178.74 107.348 1178.74 106.616 1179.22 106.165C1179.7 105.714 1180.47 105.714 1180.95 106.165Z" fill="white"/>
<path d="M1177.68 111.277C1178.35 111.277 1178.9 111.795 1178.9 112.433C1178.9 113.071 1178.35 113.589 1177.68 113.589C1177 113.589 1176.45 113.071 1176.45 112.433C1176.45 111.793 1177 111.277 1177.68 111.277Z" fill="white"/>
<path d="M1179.19 117.073C1179.67 116.622 1180.45 116.622 1180.93 117.073C1181.4 117.524 1181.4 118.256 1180.93 118.708C1180.45 119.159 1179.67 119.159 1179.19 118.708C1178.72 118.256 1178.72 117.526 1179.19 117.073Z" fill="white"/>
<path d="M1184.61 120.161C1184.61 119.523 1185.16 119.005 1185.84 119.005C1186.51 119.005 1187.06 119.523 1187.06 120.161C1187.06 120.799 1186.51 121.317 1185.84 121.317C1185.16 121.317 1184.61 120.801 1184.61 120.161Z" fill="white"/>
<path d="M1190.75 118.731C1190.28 118.28 1190.28 117.548 1190.75 117.097C1191.23 116.646 1192.01 116.646 1192.49 117.097C1192.96 117.548 1192.96 118.28 1192.49 118.731C1192.01 119.182 1191.23 119.182 1190.75 118.731Z" fill="white"/>
<path d="M1194.03 113.62C1193.35 113.62 1192.8 113.101 1192.8 112.464C1192.8 111.826 1193.35 111.307 1194.03 111.307C1194.7 111.307 1195.25 111.826 1195.25 112.464C1195.25 113.101 1194.7 113.62 1194.03 113.62Z" fill="white"/>
<path d="M1192.51 107.821C1192.03 108.272 1191.26 108.272 1190.78 107.821C1190.3 107.37 1190.3 106.638 1190.78 106.187C1191.26 105.736 1192.03 105.736 1192.51 106.187C1192.99 106.638 1192.99 107.37 1192.51 107.821Z" fill="white"/>
<path d="M1187.09 104.734C1187.09 105.371 1186.54 105.89 1185.87 105.89C1185.19 105.89 1184.64 105.371 1184.64 104.734C1184.64 104.096 1185.19 103.578 1185.87 103.578C1186.55 103.578 1187.09 104.096 1187.09 104.734Z" fill="white"/>
<mask id="mask0_1_247" style="mask-type:luminance" maskUnits="userSpaceOnUse" x="1179" y="106" width="13" height="13">
<path d="M1189.49 107.868C1192.16 109.78 1192.68 113.368 1190.65 115.885C1188.63 118.4 1184.83 118.891 1182.16 116.979C1179.49 115.067 1178.97 111.48 1181 108.963C1183.02 106.446 1186.83 105.957 1189.49 107.868Z" fill="white"/>
</mask>
<g mask="url(#mask0_1_247)">
<path opacity="0.43" d="M1183.03 106.047C1185.69 107.959 1186.21 111.547 1184.19 114.064C1182.16 116.579 1178.36 117.068 1175.69 115.158C1173.03 113.246 1172.51 109.659 1174.53 107.142C1176.56 104.627 1180.36 104.137 1183.03 106.047Z" fill="white"/>
</g>
<path d="M1231.21 155.39C1231.21 155.39 1231.06 155.357 1230.82 155.288C1228.96 154.774 1227.26 153.83 1225.85 152.581L1207.6 136.507C1206.76 135.717 1206.76 134.438 1207.6 133.648L1208.17 133.106C1209.01 132.316 1210.37 132.316 1211.2 133.106L1227.61 149.519C1229.26 151.173 1230.5 153.163 1231.2 155.341L1231.21 155.39Z" fill="#FF6CB2"/>
<path opacity="0.21" d="M916.492 848.855L757.296 692.641C756.571 691.764 755.757 690.96 754.856 690.247C751.91 687.915 748.107 686.523 743.963 686.576C734.781 686.694 727.438 693.813 727.563 702.48C727.629 707.07 729.791 711.16 733.162 713.987C733.849 714.528 818.662 788.612 887.619 848.855H916.492Z" fill="url(#paint2_linear_1_247)"/>
<path d="M728.863 709.149C728.863 709.149 733.104 723.586 744.993 724.372L728.863 709.149Z" fill="#8E3387"/>
<path d="M751.6 687.689C751.6 687.689 766.898 691.692 767.73 702.912L751.6 687.689Z" fill="#8E3387"/>
<path d="M759.022 697.586L739.34 716.161C738.437 717.013 736.973 717.013 736.07 716.161L713.861 695.202C709.324 690.919 708.248 678.807 708.003 672.264C707.913 669.871 709.983 667.918 712.518 668.003C719.45 668.234 732.285 669.249 736.823 673.531L759.023 694.483C759.93 695.34 759.93 696.729 759.022 697.586Z" fill="white"/>
<path opacity="0.43" d="M709.277 669.205C708.453 669.984 707.958 671.071 708.003 672.269C708.248 678.813 709.325 690.921 713.861 695.201L736.061 716.153C736.969 717.009 738.441 717.009 739.349 716.153L749.187 706.869L709.277 669.205Z" fill="#8E8E91"/>
<path d="M729.055 677.993C731.922 680.7 731.922 685.088 729.055 687.794C726.187 690.5 721.538 690.5 718.67 687.794C715.803 685.088 715.803 680.7 718.67 677.993C721.538 675.287 726.187 675.287 729.055 677.993Z" fill="#6A0DAD"/>
<path d="M726.552 679.595C728.492 680.987 728.871 683.599 727.396 685.43C725.921 687.262 723.153 687.619 721.212 686.227C719.272 684.835 718.893 682.223 720.368 680.391C721.842 678.56 724.611 678.204 726.552 679.595Z" fill="#F2F2F6"/>
<path d="M726.552 679.595C728.492 680.987 728.871 683.599 727.396 685.43C725.921 687.262 723.153 687.619 721.212 686.227C719.272 684.835 718.893 682.223 720.368 680.391C721.842 678.56 724.611 678.204 726.552 679.595Z" fill="#E6E6FF"/>
<path d="M719.701 679.792C720.193 679.792 720.593 679.415 720.593 678.95C720.593 678.485 720.193 678.109 719.701 678.109C719.208 678.109 718.809 678.485 718.809 678.95C718.809 679.415 719.208 679.792 719.701 679.792Z" fill="white"/>
<path d="M717.95 682.077C718.442 682.077 718.841 682.454 718.841 682.919C718.841 683.383 718.442 683.76 717.95 683.76C717.457 683.76 717.058 683.383 717.058 682.919C717.058 682.454 717.457 682.077 717.95 682.077Z" fill="white"/>
<path d="M719.684 687.734C720.177 687.734 720.576 687.357 720.576 686.892C720.576 686.428 720.177 686.051 719.684 686.051C719.192 686.051 718.792 686.428 718.792 686.892C718.792 687.357 719.192 687.734 719.684 687.734Z" fill="white"/>
<path d="M722.997 688.547C722.997 688.082 723.397 687.705 723.889 687.705C724.381 687.705 724.781 688.082 724.781 688.547C724.781 689.011 724.381 689.388 723.889 689.388C723.397 689.388 722.997 689.011 722.997 688.547Z" fill="white"/>
<path d="M728.101 687.751C728.594 687.751 728.993 687.375 728.993 686.91C728.993 686.445 728.594 686.068 728.101 686.068C727.609 686.068 727.209 686.445 727.209 686.91C727.209 687.375 727.609 687.751 728.101 687.751Z" fill="white"/>
<path d="M729.852 683.783C729.36 683.783 728.961 683.406 728.961 682.941C728.961 682.477 729.36 682.1 729.852 682.1C730.345 682.1 730.744 682.477 730.744 682.941C730.744 683.406 730.345 683.783 729.852 683.783Z" fill="white"/>
<path d="M728.118 679.808C728.61 679.808 729.01 679.431 729.01 678.966C729.01 678.501 728.61 678.124 728.118 678.124C727.625 678.124 727.226 678.501 727.226 678.966C727.226 679.431 727.625 679.808 728.118 679.808Z" fill="white"/>
<path d="M724.805 677.313C724.805 677.778 724.405 678.155 723.913 678.155C723.421 678.155 723.021 677.778 723.021 677.313C723.021 676.849 723.421 676.472 723.913 676.472C724.405 676.472 724.805 676.847 724.805 677.313Z" fill="white"/>
<mask id="mask1_1_247" style="mask-type:luminance" maskUnits="userSpaceOnUse" x="719" y="678" width="10" height="10">
<path d="M726.552 679.595C728.492 680.987 728.871 683.599 727.396 685.43C725.921 687.262 723.153 687.619 721.212 686.227C719.272 684.835 718.893 682.223 720.368 680.391C721.842 678.56 724.611 678.204 726.552 679.595Z" fill="white"/>
</mask>
<g mask="url(#mask1_1_247)">
<path opacity="0.43" d="M721.845 678.27C723.785 679.662 724.164 682.274 722.689 684.106C721.214 685.937 718.446 686.294 716.505 684.902C714.565 683.51 714.186 680.898 715.661 679.067C717.135 677.235 719.904 676.878 721.845 678.27Z" fill="white"/>
</g>
<path d="M756.927 714.196C756.927 714.196 756.82 714.172 756.641 714.123C755.286 713.749 754.052 713.061 753.022 712.151L739.735 700.447C739.125 699.873 739.125 698.94 739.735 698.365L740.153 697.971C740.761 697.395 741.75 697.395 742.358 697.971L754.303 709.922C755.508 711.126 756.409 712.575 756.914 714.16L756.927 714.196Z" fill="#8E3387"/>
<path d="M359.846 466.019L360.766 467.906C360.922 468.226 361.194 468.482 361.532 468.629L363.531 469.497L361.532 470.364C361.192 470.511 360.922 470.769 360.766 471.087L359.846 472.974L358.927 471.087C358.771 470.769 358.499 470.511 358.161 470.364L356.162 469.497L358.161 468.629C358.499 468.482 358.771 468.225 358.927 467.906L359.846 466.019Z" fill="#FFFFFA"/>
<g opacity="0.3">
<path d="M800.379 558.159L803.244 564.036C803.729 565.032 804.576 565.831 805.632 566.29L811.859 568.993L805.632 571.697C804.576 572.155 803.729 572.954 803.244 573.951L800.379 579.827L797.514 573.951C797.029 572.954 796.182 572.155 795.126 571.697L788.899 568.993L795.126 566.29C796.182 565.831 797.029 565.032 797.514 564.036L800.379 558.159Z" fill="#FFFFFA"/>
<path d="M849.327 85.6388L852.359 91.8594C852.874 92.914 853.77 93.7602 854.888 94.2458L861.479 97.1069L854.888 99.9681C853.77 100.454 852.874 101.3 852.359 102.354L849.327 108.575L846.296 102.354C845.781 101.3 844.885 100.454 843.767 99.9681L837.176 97.1069L843.767 94.2458C844.885 93.7602 845.781 92.914 846.296 91.8594L849.327 85.6388Z" fill="#FFFFFA"/>
</g>
<g opacity="0.42">
<path d="M396.851 399.05L400.535 406.609C401.159 407.89 402.25 408.92 403.607 409.509L411.617 412.986L403.607 416.463C402.25 417.054 401.159 418.081 400.535 419.362L396.851 426.922L393.166 419.362C392.542 418.081 391.452 417.052 390.094 416.463L382.084 412.986L390.094 409.509C391.452 408.918 392.542 407.89 393.166 406.609L396.851 399.05Z" fill="#FFFFFA"/>
<path d="M1142.1 601.796L1144.08 605.866C1144.42 606.556 1145 607.109 1145.73 607.428L1150.05 609.3L1145.73 611.171C1145 611.488 1144.42 612.043 1144.08 612.733L1142.1 616.803L1140.11 612.733C1139.78 612.043 1139.19 611.49 1138.46 611.171L1134.15 609.3L1138.46 607.428C1139.19 607.111 1139.78 606.556 1140.11 605.866L1142.1 601.796Z" fill="#FFFFFA"/>
<path d="M688.949 169.516L690.932 173.586C691.268 174.276 691.856 174.829 692.585 175.148L696.898 177.019L692.585 178.891C691.854 179.208 691.268 179.763 690.932 180.453L688.949 184.523L686.965 180.453C686.629 179.763 686.042 179.21 685.312 178.891L681 177.019L685.312 175.148C686.044 174.831 686.629 174.276 686.965 173.586L688.949 169.516Z" fill="#FFFFFA"/>
<path d="M496.949 442.465L498.932 446.535C499.268 447.225 499.856 447.778 500.585 448.097L504.898 449.969L500.585 451.84C499.854 452.158 499.268 452.712 498.932 453.402L496.949 457.472L494.965 453.402C494.629 452.712 494.042 452.159 493.312 451.84L489 449.969L493.312 448.097C494.044 447.78 494.629 447.225 494.965 446.535L496.949 442.465Z" fill="#FFFFFA"/>
<path d="M131.949 798.736L133.932 802.806C134.268 803.496 134.856 804.049 135.585 804.368L139.898 806.239L135.585 808.111C134.854 808.428 134.268 808.983 133.932 809.673L131.949 813.743L129.965 809.673C129.629 808.983 129.042 808.43 128.312 808.111L124 806.239L128.312 804.368C129.044 804.05 129.629 803.496 129.965 802.806L131.949 798.736Z" fill="#FFFFFA"/>
<path d="M1270.95 882.057L1272.93 886.127C1273.27 886.817 1273.86 887.37 1274.59 887.689L1278.9 889.561L1274.59 891.432C1273.85 891.75 1273.27 892.304 1272.93 892.994L1270.95 897.064L1268.97 892.994C1268.63 892.304 1268.04 891.751 1267.31 891.432L1263 889.561L1267.31 887.689C1268.04 887.372 1268.63 886.817 1268.97 886.127L1270.95 882.057Z" fill="#FFFFFA"/>
<path d="M473.816 78.0792L474.735 79.9655C474.891 80.2862 475.164 80.5417 475.501 80.6885L477.5 81.5564L475.501 82.4244C475.164 82.5712 474.891 82.8285 474.735 83.1474L473.816 85.0337L472.896 83.1474C472.741 82.8285 472.468 82.5712 472.13 82.4244L470.131 81.5564L472.13 80.6885C472.468 80.5417 472.741 80.2844 472.896 79.9655L473.816 78.0792Z" fill="#FFFFFA"/>
<path d="M528.052 772.988L530.59 778.196C531.02 779.079 531.771 779.787 532.706 780.193L538.224 782.588L532.706 784.984C531.771 785.39 531.02 786.098 530.59 786.981L528.052 792.188L525.514 786.981C525.084 786.098 524.333 785.39 523.398 784.984L517.88 782.588L523.398 780.193C524.333 779.787 525.084 779.079 525.514 778.196L528.052 772.988Z" fill="#FFFFFA"/>
</g>
<path d="M1066.97 668.325C1065.93 667.328 1064.41 666.788 1062.76 667.078C1060.88 667.406 1059.36 668.885 1059.06 670.662C1058.71 672.715 1059.88 674.538 1061.67 675.335L1061.67 675.343L1122.29 727.405C1122.83 727.869 1123.67 727.804 1124.13 727.264C1124.52 726.802 1124.49 726.14 1124.06 725.711L1066.97 668.325Z" fill="url(#paint3_linear_1_247)"/>
<path d="M78.0752 656.921C76.641 655.534 74.5213 654.784 72.2269 655.186C69.6176 655.643 67.5037 657.698 67.0851 660.171C66.6013 663.027 68.2294 665.564 70.7139 666.671L70.7082 666.68L155.023 739.086C155.774 739.731 156.947 739.64 157.577 738.89C158.116 738.247 158.076 737.328 157.481 736.73L78.0752 656.921Z" fill="url(#paint4_linear_1_247)"/>
<path d="M1330.08 787.17C1328.64 785.784 1326.52 785.034 1324.23 785.436C1321.62 785.893 1319.5 787.947 1319.09 790.421C1318.6 793.277 1320.23 795.813 1322.71 796.92L1322.71 796.929L1407.02 869.335C1407.77 869.98 1408.95 869.89 1409.58 869.14C1410.12 868.496 1410.08 867.578 1409.48 866.98L1330.08 787.17Z" fill="url(#paint5_linear_1_247)"/>
<path d="M310.075 62.1785C308.641 60.7923 306.521 60.0421 304.227 60.4444C301.618 60.901 299.504 62.9559 299.085 65.4292C298.601 68.2849 300.229 70.8218 302.714 71.9289L302.708 71.9379L387.023 144.344C387.774 144.989 388.947 144.898 389.577 144.148C390.116 143.505 390.076 142.586 389.481 141.988L310.075 62.1785Z" fill="url(#paint6_linear_1_247)"/>
<path d="M1284.68 305.744C1283.83 304.882 1282.57 304.414 1281.2 304.664C1279.65 304.949 1278.39 306.228 1278.14 307.768C1277.85 309.546 1278.82 311.126 1280.3 311.814L1280.3 311.82L1400.97 424.686C1401.42 425.088 1402.12 425.032 1402.49 424.564C1402.81 424.164 1402.79 423.591 1402.44 423.22L1284.68 305.744Z" fill="url(#paint7_linear_1_247)"/>
<path d="M91.899 69.4595C91.0446 68.597 89.7831 68.1295 88.418 68.3795C86.8647 68.664 85.6052 69.9433 85.3575 71.4835C85.0695 73.2611 86.0391 74.8411 87.5175 75.5297L87.5137 75.5351L208.188 188.401C208.635 188.803 209.332 188.747 209.708 188.28C210.029 187.879 210.006 187.307 209.651 186.935L91.899 69.4595Z" fill="url(#paint8_linear_1_247)"/>
<path d="M674.147 335.452L677.891 336.845L674.147 338.239L672.67 341.772L671.194 338.239L667.45 336.845L671.194 335.452L672.67 331.919L674.147 335.452Z" fill="#FFFFFA"/>
<path d="M990.776 355.917L994.52 357.31L990.776 358.704L989.299 362.239L987.823 358.704L984.079 357.31L987.823 355.917L989.299 352.383L990.776 355.917Z" fill="#FFFFFA"/>
<path d="M1117.92 745.944L1121.67 747.338L1117.92 748.731L1116.45 752.265L1114.97 748.731L1111.23 747.338L1114.97 745.944L1116.45 742.411L1117.92 745.944Z" fill="#FFFFFA"/>
<path d="M233.877 546.681L237.619 548.074L233.877 549.467L232.399 553.001L230.922 549.467L227.178 548.074L230.922 546.681L232.399 543.147L233.877 546.681Z" fill="#FFFFFA"/>
<path d="M97.8029 285.506L101.547 286.899L97.8029 288.293L96.3264 291.826L94.85 288.293L91.106 286.899L94.85 285.506L96.3264 281.973L97.8029 285.506Z" fill="#FFFFFA"/>
<path d="M1239.64 486.183L1243.38 487.577L1239.64 488.97L1238.16 492.503L1236.69 488.97L1232.94 487.577L1236.69 486.183L1238.16 482.65L1239.64 486.183Z" fill="#FFFFFA"/>
<path d="M468.781 662.087L472.403 663.433L468.781 664.781L467.353 668.199L465.926 664.781L462.305 663.433L465.926 662.087L467.353 658.669L468.781 662.087Z" fill="#FFFFFA"/>
<path d="M903.009 620.338L906.63 621.685L903.009 623.033L901.58 626.45L900.152 623.033L896.531 621.685L900.152 620.338L901.58 616.921L903.009 620.338Z" fill="#FFFFFA"/>
<path d="M602.112 557.879L605.733 559.227L602.112 560.575L600.684 563.992L599.255 560.575L595.636 559.227L599.255 557.879L600.684 554.461L602.112 557.879Z" fill="#FFFFFA"/>
<path d="M337.891 267.645L341.512 268.993L337.891 270.34L336.463 273.757L335.034 270.34L331.415 268.993L335.034 267.645L336.463 264.228L337.891 267.645Z" fill="#FFFFFA"/>
<path d="M535.006 123.12L538.627 124.466L535.006 125.815L533.578 129.232L532.151 125.815L528.53 124.466L532.151 123.12L533.578 119.703L535.006 123.12Z" fill="#FFFFFA"/>
<path d="M982.301 90.7849L985.922 92.133L982.301 93.4793L980.872 96.8967L979.444 93.4793L975.825 92.133L979.444 90.7849L980.872 87.3674L982.301 90.7849Z" fill="#FFFFFA"/>
<path d="M1117.87 273.201L1121.49 274.549L1117.87 275.895L1116.44 279.313L1115.02 275.895L1111.39 274.549L1115.02 273.201L1116.44 269.783L1117.87 273.201Z" fill="#FFFFFA"/>
<path d="M1391 277.434L1394.62 278.78L1391 280.128L1389.57 283.545L1388.15 280.128L1384.53 278.78L1388.15 277.434L1389.57 274.016L1391 277.434Z" fill="#FFFFFA"/>
<path d="M1120.77 45.9814L1124.39 47.3295L1120.77 48.6777L1119.34 52.0951L1117.91 48.6777L1114.29 47.3295L1117.91 45.9814L1119.34 42.564L1120.77 45.9814Z" fill="#FFFFFA"/>
<path d="M845.614 238.396L849.235 239.744L845.614 241.092L844.186 244.51L842.757 241.092L839.136 239.744L842.757 238.396L844.186 234.979L845.614 238.396Z" fill="#FFFFFA"/>
<path d="M1337.05 72L1339.81 77.6589C1340.28 78.6174 1341.09 79.3875 1342.11 79.8297L1348.1 82.4317L1342.11 85.0337C1341.1 85.4758 1340.28 86.2441 1339.81 87.2045L1337.05 92.8634L1334.29 87.2045C1333.83 86.246 1333.01 85.4758 1331.99 85.0337L1326 82.4317L1331.99 79.8297C1333.01 79.3875 1333.83 78.6192 1334.29 77.6589L1337.05 72Z" fill="#FFFFFA"/>
<path d="M111.709 183.331L114.263 188.568C114.695 189.456 115.45 190.168 116.392 190.577L121.941 192.987L116.392 195.395C115.452 195.803 114.697 196.517 114.263 197.405L111.709 202.642L109.156 197.405C108.724 196.517 107.967 195.805 107.027 195.395L101.478 192.987L107.027 190.577C107.967 190.17 108.722 189.456 109.156 188.568L111.709 183.331Z" fill="#FFFFFA"/>
<path d="M1302.25 418.826L1304.23 422.895C1304.57 423.586 1305.16 424.138 1305.89 424.457L1310.2 426.329L1305.89 428.201C1305.15 428.518 1304.57 429.073 1304.23 429.761L1302.25 433.831L1300.27 429.761C1299.93 429.071 1299.34 428.518 1298.61 428.201L1294.3 426.329L1298.61 424.457C1299.34 424.14 1299.93 423.586 1300.27 422.895L1302.25 418.826Z" fill="#FFFFFA"/>
<path d="M211.864 120.558L212.784 122.444C212.94 122.765 213.212 123.02 213.55 123.167L215.549 124.035L213.55 124.903C213.212 125.05 212.94 125.307 212.784 125.626L211.864 127.512L210.945 125.626C210.789 125.307 210.517 125.05 210.179 124.903L208.18 124.035L210.179 123.167C210.517 123.02 210.789 122.763 210.945 122.444L211.864 120.558Z" fill="#FFFFFA"/>
<path d="M185.637 317.606L186.557 319.492C186.712 319.811 186.985 320.068 187.323 320.215L189.322 321.083L187.323 321.951C186.985 322.098 186.712 322.355 186.557 322.674L185.637 324.56L184.717 322.674C184.562 322.355 184.289 322.098 183.951 321.951L181.953 321.083L183.951 320.215C184.291 320.068 184.562 319.811 184.717 319.492L185.637 317.606Z" fill="#FFFFFA"/>
<path d="M172.764 477L175.302 482.208C175.732 483.09 176.483 483.799 177.418 484.205L182.934 486.6L177.418 488.995C176.483 489.401 175.732 490.11 175.302 490.992L172.764 496.2L170.225 490.992C169.795 490.11 169.045 489.401 168.11 488.995L162.591 486.6L168.11 484.205C169.045 483.799 169.795 483.09 170.225 482.208L172.764 477Z" fill="#FFFFFA"/>
<mask id="mask2_1_247" style="mask-type:luminance" maskUnits="userSpaceOnUse" x="42" y="121" width="43" height="41">
<path d="M84.9004 141.678C84.9004 130.588 75.5132 121.598 63.9336 121.598C52.3539 121.598 42.9668 130.588 42.9668 141.678C42.9668 152.768 52.3539 161.759 63.9336 161.759C75.5132 161.759 84.9004 152.768 84.9004 141.678Z" fill="white"/>
</mask>
<g mask="url(#mask2_1_247)">
<path d="M78.762 155.875C86.95 148.033 86.95 135.319 78.762 127.477C70.5739 119.635 57.2985 119.635 49.1104 127.477C40.9224 135.319 40.9224 148.033 49.1104 155.875C57.2985 163.717 70.5739 163.717 78.762 155.875Z" fill="#FFC0DE"/>
</g>
<mask id="mask3_1_247" style="mask-type:luminance" maskUnits="userSpaceOnUse" x="42" y="121" width="43" height="41">
<path d="M78.7624 155.875C86.9505 148.033 86.9505 135.319 78.7624 127.477C70.5743 119.635 57.2987 119.635 49.1106 127.477C40.9224 135.319 40.9225 148.033 49.1106 155.875C57.2987 163.717 70.5743 163.717 78.7624 155.875Z" fill="white"/>
</mask>
<g mask="url(#mask3_1_247)">
<path d="M42.9732 152.262C42.9732 152.262 50.2592 148.701 57.3852 152.262C64.5102 155.822 66.0192 159.919 71.3262 158.789C76.6332 157.658 75.8182 159.321 79.8462 158.981C83.8742 158.641 86.0422 150.679 86.0422 150.679C86.0422 150.679 92.1352 146.179 84.9062 145.289C77.6772 144.399 85.5772 144.251 73.9592 145.289C62.3412 146.327 67.1432 140.839 59.5532 142.619C51.9632 144.4 53.5122 148.108 50.4142 148.108C47.3162 148.108 43.7422 146.624 42.9732 148.405C42.2042 150.184 42.9732 152.262 42.9732 152.262Z" fill="#FF6CB2"/>
</g>
<mask id="mask4_1_247" style="mask-type:luminance" maskUnits="userSpaceOnUse" x="42" y="121" width="43" height="41">
<path d="M78.7624 155.875C86.9505 148.033 86.9505 135.319 78.7624 127.477C70.5743 119.635 57.2987 119.635 49.1106 127.477C40.9224 135.319 40.9225 148.033 49.1106 155.875C57.2987 163.717 70.5743 163.717 78.7624 155.875Z" fill="white"/>
</mask>
<g mask="url(#mask4_1_247)">
<path d="M85.6972 142.959C85.6972 142.959 80.3352 137.042 72.3362 137.787C64.3362 138.53 61.3342 141.788 56.8562 138.834C52.3782 135.881 52.4832 137.715 48.8822 135.953C45.2812 134.193 46.3862 126.033 46.3862 126.033C46.3862 126.033 42.4982 119.674 49.5482 121.444C56.5982 123.214 49.3322 120.24 59.6972 125.374C70.0622 130.507 67.7582 123.694 74.0982 128.069C80.4382 132.443 77.5512 135.326 80.4232 136.438C83.2952 137.55 87.1902 137.458 87.2062 139.384C87.2232 141.309 85.6972 142.959 85.6972 142.959Z" fill="#FF6CB2"/>
</g>
<mask id="mask5_1_247" style="mask-type:luminance" maskUnits="userSpaceOnUse" x="42" y="121" width="43" height="41">
<path d="M78.7624 155.875C86.9505 148.033 86.9505 135.319 78.7624 127.477C70.5743 119.635 57.2987 119.635 49.1106 127.477C40.9224 135.319 40.9225 148.033 49.1106 155.875C57.2987 163.717 70.5743 163.717 78.7624 155.875Z" fill="white"/>
</mask>
<g mask="url(#mask5_1_247)">
<path d="M69.8972 171.383C69.8972 171.383 64.5352 165.466 56.5362 166.21C48.5362 166.953 45.5342 170.211 41.0562 167.257C36.5782 164.304 36.6832 166.138 33.0822 164.377C29.4812 162.616 30.5862 154.456 30.5862 154.456C30.5862 154.456 26.6982 148.097 33.7492 149.867C40.7992 151.637 33.5332 148.663 43.8982 153.797C54.2632 158.93 51.9592 152.117 58.2992 156.492C64.6392 160.866 61.7522 163.749 64.6242 164.861C67.4962 165.973 71.3912 165.881 71.4072 167.807C71.4232 169.734 69.8972 171.383 69.8972 171.383Z" fill="#FF6CB2"/>
</g>
<mask id="mask6_1_247" style="mask-type:luminance" maskUnits="userSpaceOnUse" x="42" y="121" width="43" height="41">
<path d="M78.7624 155.875C86.9505 148.033 86.9505 135.319 78.7624 127.477C70.5743 119.635 57.2987 119.635 49.1106 127.477C40.9224 135.319 40.9225 148.033 49.1106 155.875C57.2987 163.717 70.5743 163.717 78.7624 155.875Z" fill="white"/>
</mask>
<g mask="url(#mask6_1_247)">
<path d="M75.3542 154.301C75.3542 154.978 74.0363 155.525 72.4113 155.525C70.7863 155.525 69.4683 154.978 69.4683 154.301C69.4683 153.625 70.7863 153.077 72.4113 153.077C74.0363 153.077 75.3542 153.625 75.3542 154.301Z" fill="#FFC0DE"/>
</g>
<mask id="mask7_1_247" style="mask-type:luminance" maskUnits="userSpaceOnUse" x="42" y="121" width="43" height="41">
<path d="M78.7624 155.875C86.9505 148.033 86.9505 135.319 78.7624 127.477C70.5743 119.635 57.2987 119.635 49.1106 127.477C40.9224 135.319 40.9225 148.033 49.1106 155.875C57.2987 163.717 70.5743 163.717 78.7624 155.875Z" fill="white"/>
</mask>
<g mask="url(#mask7_1_247)">
<path opacity="0.8" d="M77.5612 141.505C77.5612 141.817 76.9542 142.069 76.2062 142.069C75.4572 142.069 74.8512 141.818 74.8512 141.505C74.8512 141.194 75.4582 140.941 76.2062 140.941C76.9542 140.942 77.5612 141.194 77.5612 141.505Z" fill="#FF0079"/>
</g>
<mask id="mask8_1_247" style="mask-type:luminance" maskUnits="userSpaceOnUse" x="42" y="121" width="43" height="41">
<path d="M78.7624 155.875C86.9505 148.033 86.9505 135.319 78.7624 127.477C70.5743 119.635 57.2987 119.635 49.1106 127.477C40.9224 135.319 40.9225 148.033 49.1106 155.875C57.2987 163.717 70.5743 163.717 78.7624 155.875Z" fill="white"/>
</mask>
<g mask="url(#mask8_1_247)">
<path opacity="0.8" d="M79.1212 142.344C79.1212 142.497 78.8252 142.619 78.4602 142.619C78.0952 142.619 77.7992 142.496 77.7992 142.344C77.7992 142.193 78.0952 142.069 78.4602 142.069C78.8252 142.069 79.1212 142.192 79.1212 142.344Z" fill="#FF0079"/>
</g>
<mask id="mask9_1_247" style="mask-type:luminance" maskUnits="userSpaceOnUse" x="42" y="121" width="43" height="41">
<path d="M78.7624 155.875C86.9505 148.033 86.9505 135.319 78.7624 127.477C70.5743 119.635 57.2987 119.635 49.1106 127.477C40.9224 135.319 40.9225 148.033 49.1106 155.875C57.2987 163.717 70.5743 163.717 78.7624 155.875Z" fill="white"/>
</mask>
<g mask="url(#mask9_1_247)">
<path opacity="0.8" d="M64.5153 123.703C64.5153 124.015 63.9083 124.267 63.1603 124.267C62.4113 124.267 61.8053 124.015 61.8053 123.703C61.8053 123.392 62.4123 123.139 63.1603 123.139C63.9093 123.139 64.5153 123.392 64.5153 123.703Z" fill="#FF0079"/>
</g>
<mask id="mask10_1_247" style="mask-type:luminance" maskUnits="userSpaceOnUse" x="42" y="121" width="43" height="41">
<path d="M78.7624 155.875C86.9505 148.033 86.9505 135.319 78.7624 127.477C70.5743 119.635 57.2987 119.635 49.1106 127.477C40.9224 135.319 40.9225 148.033 49.1106 155.875C57.2987 163.717 70.5743 163.717 78.7624 155.875Z" fill="white"/>
</mask>
<g mask="url(#mask10_1_247)">
<path opacity="0.8" d="M66.0753 124.541C66.0753 124.693 65.7793 124.816 65.4143 124.816C65.0493 124.816 64.7533 124.693 64.7533 124.541C64.7533 124.39 65.0493 124.266 65.4143 124.266C65.7793 124.266 66.0753 124.39 66.0753 124.541Z" fill="#FF0079"/>
</g>
<mask id="mask11_1_247" style="mask-type:luminance" maskUnits="userSpaceOnUse" x="42" y="121" width="43" height="41">
<path d="M78.7624 155.875C86.9505 148.033 86.9505 135.319 78.7624 127.477C70.5743 119.635 57.2987 119.635 49.1106 127.477C40.9224 135.319 40.9225 148.033 49.1106 155.875C57.2987 163.717 70.5743 163.717 78.7624 155.875Z" fill="white"/>
</mask>
<g mask="url(#mask11_1_247)">
<path d="M63.9402 146.958C63.9402 147.634 62.6222 148.182 60.9972 148.182C59.3722 148.182 58.0542 147.634 58.0542 146.958C58.0542 146.281 59.3722 145.734 60.9972 145.734C62.6222 145.734 63.9402 146.281 63.9402 146.958Z" fill="#FFC0DE"/>
</g>
<mask id="mask12_1_247" style="mask-type:luminance" maskUnits="userSpaceOnUse" x="42" y="121" width="43" height="41">
<path d="M78.7624 155.875C86.9505 148.033 86.9505 135.319 78.7624 127.477C70.5743 119.635 57.2987 119.635 49.1106 127.477C40.9224 135.319 40.9225 148.033 49.1106 155.875C57.2987 163.717 70.5743 163.717 78.7624 155.875Z" fill="white"/>
</mask>
<g mask="url(#mask12_1_247)">
<path d="M43.5992 127.684C43.5992 127.684 52.0163 125.458 57.2313 128.722C62.4463 131.986 64.5633 131.808 67.9713 132.045C71.3793 132.282 69.1073 134.903 66.6803 134.903C64.2533 134.903 63.6853 132.183 59.6583 132.678C55.6313 133.172 54.0812 134.656 51.0872 133.123C48.0922 131.59 44.6842 130.502 44.2202 130.502C43.7542 130.502 43.5992 127.684 43.5992 127.684Z" fill="#FFC0DE"/>
</g>
<mask id="mask13_1_247" style="mask-type:luminance" maskUnits="userSpaceOnUse" x="42" y="121" width="43" height="41">
<path d="M78.7624 155.875C86.9505 148.033 86.9505 135.319 78.7624 127.477C70.5743 119.635 57.2987 119.635 49.1106 127.477C40.9224 135.319 40.9225 148.033 49.1106 155.875C57.2987 163.717 70.5743 163.717 78.7624 155.875Z" fill="white"/>
</mask>
<g mask="url(#mask13_1_247)">
<path d="M19.4412 140.217C19.4412 140.217 27.2872 136.548 33.0392 138.837C38.7922 141.127 40.8392 140.579 44.2342 140.212C47.6292 139.846 45.8992 142.822 43.5142 143.249C41.1292 143.676 40.0482 141.103 36.1842 142.298C32.3202 143.494 31.0821 145.225 27.8441 144.245C24.6061 143.266 21.0472 142.796 20.5912 142.879C20.1342 142.96 19.4412 140.217 19.4412 140.217Z" fill="#FF6CB2"/>
</g>
<mask id="mask14_1_247" style="mask-type:luminance" maskUnits="userSpaceOnUse" x="42" y="121" width="43" height="41">
<path d="M78.7624 155.875C86.9505 148.033 86.9505 135.319 78.7624 127.477C70.5743 119.635 57.2987 119.635 49.1106 127.477C40.9224 135.319 40.9225 148.033 49.1106 155.875C57.2987 163.717 70.5743 163.717 78.7624 155.875Z" fill="white"/>
</mask>
<g mask="url(#mask14_1_247)">
<path opacity="0.8" d="M53.4742 129.81C53.4742 130.121 52.8672 130.374 52.1192 130.374C51.3702 130.374 50.7642 130.122 50.7642 129.81C50.7642 129.498 51.3712 129.246 52.1192 129.246C52.8672 129.247 53.4742 129.498 53.4742 129.81Z" fill="#FF0079"/>
</g>
<mask id="mask15_1_247" style="mask-type:luminance" maskUnits="userSpaceOnUse" x="42" y="121" width="43" height="41">
<path d="M78.7624 155.875C86.9505 148.033 86.9505 135.319 78.7624 127.477C70.5743 119.635 57.2987 119.635 49.1106 127.477C40.9224 135.319 40.9225 148.033 49.1106 155.875C57.2987 163.717 70.5743 163.717 78.7624 155.875Z" fill="white"/>
</mask>
<g mask="url(#mask15_1_247)">
<path opacity="0.8" d="M55.0332 130.649C55.0332 130.801 54.7372 130.924 54.3722 130.924C54.0072 130.924 53.7112 130.801 53.7112 130.649C53.7112 130.497 54.0072 130.374 54.3722 130.374C54.7372 130.374 55.0332 130.497 55.0332 130.649Z" fill="#FF0079"/>
</g>
<mask id="mask16_1_247" style="mask-type:luminance" maskUnits="userSpaceOnUse" x="42" y="121" width="43" height="41">
<path d="M78.7624 155.875C86.9505 148.033 86.9505 135.319 78.7624 127.477C70.5743 119.635 57.2987 119.635 49.1106 127.477C40.9224 135.319 40.9225 148.033 49.1106 155.875C57.2987 163.717 70.5743 163.717 78.7624 155.875Z" fill="white"/>
</mask>
<g mask="url(#mask16_1_247)">
<path opacity="0.8" d="M46.6732 145.754C47.4216 145.754 48.0282 145.501 48.0282 145.19C48.0282 144.878 47.4216 144.626 46.6732 144.626C45.9249 144.626 45.3182 144.878 45.3182 145.19C45.3182 145.501 45.9249 145.754 46.6732 145.754Z" fill="#FF0079"/>
</g>
<mask id="mask17_1_247" style="mask-type:luminance" maskUnits="userSpaceOnUse" x="42" y="121" width="43" height="41">
<path d="M78.7624 155.875C86.9505 148.033 86.9505 135.319 78.7624 127.477C70.5743 119.635 57.2987 119.635 49.1106 127.477C40.9224 135.319 40.9225 148.033 49.1106 155.875C57.2987 163.717 70.5743 163.717 78.7624 155.875Z" fill="white"/>
</mask>
<g mask="url(#mask17_1_247)">
<path opacity="0.8" d="M54.1352 153.077C54.1352 153.23 53.8392 153.352 53.4742 153.352C53.1092 153.352 52.8132 153.229 52.8132 153.077C52.8132 152.926 53.1092 152.803 53.4742 152.803C53.8392 152.803 54.1352 152.925 54.1352 153.077Z" fill="#FF0079"/>
</g>
<mask id="mask18_1_247" style="mask-type:luminance" maskUnits="userSpaceOnUse" x="42" y="121" width="43" height="41">
<path d="M78.7624 155.875C86.9505 148.033 86.9505 135.319 78.7624 127.477C70.5743 119.635 57.2987 119.635 49.1106 127.477C40.9224 135.319 40.9225 148.033 49.1106 155.875C57.2987 163.717 70.5743 163.717 78.7624 155.875Z" fill="white"/>
</mask>
<g mask="url(#mask18_1_247)">
<path opacity="0.8" d="M49.2273 138.144C49.5924 138.144 49.8883 138.021 49.8883 137.869C49.8883 137.717 49.5924 137.594 49.2273 137.594C48.8622 137.594 48.5663 137.717 48.5663 137.869C48.5663 138.021 48.8622 138.144 49.2273 138.144Z" fill="#FF0079"/>
</g>
<path opacity="0.3" d="M74.7203 124.478C77.0873 127.728 78.4803 131.676 78.4803 135.939C78.4803 147.016 69.1043 155.996 57.5373 155.996C53.5943 155.996 49.9063 154.952 46.7573 153.137C50.5423 158.331 56.8243 161.733 63.9403 161.733C75.5063 161.733 84.8833 152.754 84.8833 141.676C84.8823 134.375 80.8083 127.987 74.7203 124.478Z" fill="white"/>
<path opacity="0.3" d="M42.9973 141.676C42.9973 142.148 43.0203 142.615 43.0543 143.08C43.4053 143.096 43.7573 143.106 44.1123 143.106C55.6783 143.106 65.0553 134.126 65.0553 123.048C65.0553 122.576 65.0323 122.109 64.9983 121.644C64.6473 121.628 64.2953 121.618 63.9403 121.618C52.3733 121.618 42.9973 130.599 42.9973 141.676Z" fill="white"/>
<mask id="mask19_1_247" style="mask-type:luminance" maskUnits="userSpaceOnUse" x="1287" y="510" width="92" height="88">
<path d="M1378.4 554.089C1378.4 530.04 1358.04 510.544 1332.93 510.544C1307.82 510.544 1287.47 530.04 1287.47 554.089C1287.47 578.138 1307.82 597.633 1332.93 597.633C1358.04 597.633 1378.4 578.138 1378.4 554.089Z" fill="white"/>
</mask>
<g mask="url(#mask19_1_247)">
<path d="M1365.09 584.874C1382.84 567.868 1382.84 540.298 1365.09 523.293C1347.33 506.287 1318.55 506.288 1300.79 523.293C1283.03 540.298 1283.03 567.868 1300.79 584.874C1318.55 601.879 1347.33 601.879 1365.09 584.874Z" fill="#FFC0DE"/>
</g>
<mask id="mask20_1_247" style="mask-type:luminance" maskUnits="userSpaceOnUse" x="1287" y="510" width="92" height="88">
<path d="M1365.09 584.874C1382.85 567.868 1382.85 540.297 1365.09 523.292C1347.33 506.287 1318.55 506.287 1300.79 523.292C1283.03 540.297 1283.03 567.868 1300.79 584.874C1318.55 601.879 1347.33 601.879 1365.09 584.874Z" fill="white"/>
</mask>
<g mask="url(#mask20_1_247)">
<path d="M1287.48 577.038C1287.48 577.038 1303.28 569.316 1318.73 577.038C1334.18 584.76 1337.46 593.644 1348.96 591.194C1360.47 588.741 1358.71 592.346 1367.44 591.609C1376.17 590.872 1380.88 573.607 1380.88 573.607C1380.88 573.607 1394.09 563.848 1378.41 561.919C1362.74 559.987 1379.87 559.667 1354.67 561.919C1329.48 564.17 1339.89 552.268 1323.43 556.128C1306.98 559.989 1310.33 568.031 1303.62 568.031C1296.9 568.031 1289.15 564.814 1287.48 568.675C1285.81 572.533 1287.48 577.038 1287.48 577.038Z" fill="#FF6CB2"/>
</g>
<mask id="mask21_1_247" style="mask-type:luminance" maskUnits="userSpaceOnUse" x="1287" y="510" width="92" height="88">
<path d="M1365.09 584.874C1382.85 567.868 1382.85 540.297 1365.09 523.292C1347.33 506.287 1318.55 506.287 1300.79 523.292C1283.03 540.297 1283.03 567.868 1300.79 584.874C1318.55 601.879 1347.33 601.879 1365.09 584.874Z" fill="white"/>
</mask>
<g mask="url(#mask21_1_247)">
<path d="M1380.13 556.866C1380.13 556.866 1368.5 544.035 1351.15 545.649C1333.81 547.26 1327.3 554.326 1317.59 547.921C1307.88 541.516 1308.1 545.493 1300.29 541.674C1292.49 537.857 1294.88 520.162 1294.88 520.162C1294.88 520.162 1286.45 506.372 1301.74 510.21C1317.03 514.048 1301.27 507.599 1323.75 518.731C1346.22 529.863 1341.23 515.088 1354.98 524.575C1368.72 534.062 1362.46 540.313 1368.69 542.725C1374.92 545.136 1383.37 544.936 1383.4 549.113C1383.44 553.287 1380.13 556.866 1380.13 556.866Z" fill="#FF6CB2"/>
</g>
<mask id="mask22_1_247" style="mask-type:luminance" maskUnits="userSpaceOnUse" x="1287" y="510" width="92" height="88">
<path d="M1365.09 584.874C1382.85 567.868 1382.85 540.297 1365.09 523.292C1347.33 506.287 1318.55 506.287 1300.79 523.292C1283.03 540.297 1283.03 567.868 1300.79 584.874C1318.55 601.879 1347.33 601.879 1365.09 584.874Z" fill="white"/>
</mask>
<g mask="url(#mask22_1_247)">
<path d="M1345.87 618.504C1345.87 618.504 1334.24 605.673 1316.89 607.285C1299.54 608.896 1293.03 615.962 1283.32 609.557C1273.61 603.152 1273.84 607.129 1266.03 603.31C1258.22 599.493 1260.62 581.798 1260.62 581.798C1260.62 581.798 1252.19 568.008 1267.48 571.846C1282.77 575.684 1267.01 569.235 1289.49 580.367C1311.96 591.499 1306.97 576.724 1320.72 586.211C1334.46 595.698 1328.2 601.949 1334.43 604.361C1340.66 606.772 1349.11 606.572 1349.14 610.749C1349.17 614.927 1345.87 618.504 1345.87 618.504Z" fill="#FF6CB2"/>
</g>
<mask id="mask23_1_247" style="mask-type:luminance" maskUnits="userSpaceOnUse" x="1287" y="510" width="92" height="88">
<path d="M1365.09 584.874C1382.85 567.868 1382.85 540.297 1365.09 523.292C1347.33 506.287 1318.55 506.287 1300.79 523.292C1283.03 540.297 1283.03 567.868 1300.79 584.874C1318.55 601.879 1347.33 601.879 1365.09 584.874Z" fill="white"/>
</mask>
<g mask="url(#mask23_1_247)">
<path d="M1357.7 581.462C1357.7 582.928 1354.84 584.116 1351.32 584.116C1347.79 584.116 1344.94 582.928 1344.94 581.462C1344.94 579.995 1347.79 578.807 1351.32 578.807C1354.84 578.807 1357.7 579.995 1357.7 581.462Z" fill="#FFC0DE"/>
</g>
<mask id="mask24_1_247" style="mask-type:luminance" maskUnits="userSpaceOnUse" x="1287" y="510" width="92" height="88">
<path d="M1365.09 584.874C1382.85 567.868 1382.85 540.297 1365.09 523.292C1347.33 506.287 1318.55 506.287 1300.79 523.292C1283.03 540.297 1283.03 567.868 1300.79 584.874C1318.55 601.879 1347.33 601.879 1365.09 584.874Z" fill="white"/>
</mask>
<g mask="url(#mask24_1_247)">
<path opacity="0.8" d="M1362.49 553.713C1362.49 554.388 1361.17 554.936 1359.55 554.936C1357.92 554.936 1356.61 554.39 1356.61 553.713C1356.61 553.038 1357.93 552.49 1359.55 552.49C1361.17 552.492 1362.49 553.038 1362.49 553.713Z" fill="#FF0079"/>
</g>
<mask id="mask25_1_247" style="mask-type:luminance" maskUnits="userSpaceOnUse" x="1287" y="510" width="92" height="88">
<path d="M1365.09 584.874C1382.85 567.868 1382.85 540.297 1365.09 523.292C1347.33 506.287 1318.55 506.287 1300.79 523.292C1283.03 540.297 1283.03 567.868 1300.79 584.874C1318.55 601.879 1347.33 601.879 1365.09 584.874Z" fill="white"/>
</mask>
<g mask="url(#mask25_1_247)">
<path opacity="0.8" d="M1365.87 555.532C1365.87 555.863 1365.23 556.128 1364.44 556.128C1363.64 556.128 1363 555.86 1363 555.532C1363 555.204 1363.64 554.936 1364.44 554.936C1365.23 554.936 1365.87 555.202 1365.87 555.532Z" fill="#FF0079"/>
</g>
<mask id="mask26_1_247" style="mask-type:luminance" maskUnits="userSpaceOnUse" x="1287" y="510" width="92" height="88">
<path d="M1365.09 584.874C1382.85 567.868 1382.85 540.297 1365.09 523.292C1347.33 506.287 1318.55 506.287 1300.79 523.292C1283.03 540.297 1283.03 567.868 1300.79 584.874C1318.55 601.879 1347.33 601.879 1365.09 584.874Z" fill="white"/>
</mask>
<g mask="url(#mask26_1_247)">
<path opacity="0.8" d="M1334.19 515.109C1334.19 515.784 1332.88 516.332 1331.26 516.332C1329.63 516.332 1328.32 515.784 1328.32 515.109C1328.32 514.434 1329.63 513.886 1331.26 513.886C1332.88 513.886 1334.19 514.434 1334.19 515.109Z" fill="#FF0079"/>
</g>
<mask id="mask27_1_247" style="mask-type:luminance" maskUnits="userSpaceOnUse" x="1287" y="510" width="92" height="88">
<path d="M1365.09 584.874C1382.85 567.868 1382.85 540.297 1365.09 523.292C1347.33 506.287 1318.55 506.287 1300.79 523.292C1283.03 540.297 1283.03 567.868 1300.79 584.874C1318.55 601.879 1347.33 601.879 1365.09 584.874Z" fill="white"/>
</mask>
<g mask="url(#mask27_1_247)">
<path opacity="0.8" d="M1337.58 516.926C1337.58 517.255 1336.94 517.522 1336.14 517.522C1335.35 517.522 1334.71 517.255 1334.71 516.926C1334.71 516.598 1335.35 516.33 1336.14 516.33C1336.94 516.33 1337.58 516.598 1337.58 516.926Z" fill="#FF0079"/>
</g>
<mask id="mask28_1_247" style="mask-type:luminance" maskUnits="userSpaceOnUse" x="1287" y="510" width="92" height="88">
<path d="M1365.09 584.874C1382.85 567.868 1382.85 540.297 1365.09 523.292C1347.33 506.287 1318.55 506.287 1300.79 523.292C1283.03 540.297 1283.03 567.868 1300.79 584.874C1318.55 601.879 1347.33 601.879 1365.09 584.874Z" fill="white"/>
</mask>
<g mask="url(#mask28_1_247)">
<path d="M1332.95 565.536C1332.95 567.003 1330.09 568.191 1326.57 568.191C1323.04 568.191 1320.18 567.003 1320.18 565.536C1320.18 564.07 1323.04 562.882 1326.57 562.882C1330.09 562.882 1332.95 564.07 1332.95 565.536Z" fill="#FFC0DE"/>
</g>
<mask id="mask29_1_247" style="mask-type:luminance" maskUnits="userSpaceOnUse" x="1287" y="510" width="92" height="88">
<path d="M1365.09 584.874C1382.85 567.868 1382.85 540.297 1365.09 523.292C1347.33 506.287 1318.55 506.287 1300.79 523.292C1283.03 540.297 1283.03 567.868 1300.79 584.874C1318.55 601.879 1347.33 601.879 1365.09 584.874Z" fill="white"/>
</mask>
<g mask="url(#mask29_1_247)">
<path d="M1288.84 523.74C1288.84 523.74 1307.09 518.914 1318.4 525.992C1329.71 533.069 1334.3 532.685 1341.69 533.198C1349.08 533.713 1344.15 539.396 1338.89 539.396C1333.63 539.396 1332.39 533.497 1323.66 534.571C1314.93 535.643 1311.57 538.86 1305.08 535.537C1298.58 532.212 1291.19 529.852 1290.18 529.852C1289.17 529.852 1288.84 523.74 1288.84 523.74Z" fill="#FFC0DE"/>
</g>
<mask id="mask30_1_247" style="mask-type:luminance" maskUnits="userSpaceOnUse" x="1287" y="510" width="92" height="88">
<path d="M1365.09 584.874C1382.85 567.868 1382.85 540.297 1365.09 523.292C1347.33 506.287 1318.55 506.287 1300.79 523.292C1283.03 540.297 1283.03 567.868 1300.79 584.874C1318.55 601.879 1347.33 601.879 1365.09 584.874Z" fill="white"/>
</mask>
<g mask="url(#mask30_1_247)">
<path d="M1236.45 550.92C1236.45 550.92 1253.47 542.963 1265.94 547.927C1278.41 552.893 1282.85 551.705 1290.22 550.909C1297.58 550.114 1293.83 556.569 1288.65 557.495C1283.48 558.421 1281.14 552.841 1272.76 555.433C1264.38 558.024 1261.69 561.779 1254.67 559.655C1247.65 557.53 1239.93 556.512 1238.94 556.691C1237.95 556.868 1236.45 550.92 1236.45 550.92Z" fill="#FF6CB2"/>
</g>
<mask id="mask31_1_247" style="mask-type:luminance" maskUnits="userSpaceOnUse" x="1287" y="510" width="92" height="88">
<path d="M1365.09 584.874C1382.85 567.868 1382.85 540.297 1365.09 523.292C1347.33 506.287 1318.55 506.287 1300.79 523.292C1283.03 540.297 1283.03 567.868 1300.79 584.874C1318.55 601.879 1347.33 601.879 1365.09 584.874Z" fill="white"/>
</mask>
<g mask="url(#mask31_1_247)">
<path opacity="0.8" d="M1310.25 528.351C1310.25 529.026 1308.94 529.574 1307.31 529.574C1305.69 529.574 1304.38 529.028 1304.38 528.351C1304.38 527.676 1305.69 527.128 1307.31 527.128C1308.94 527.13 1310.25 527.676 1310.25 528.351Z" fill="#FF0079"/>
</g>
<mask id="mask32_1_247" style="mask-type:luminance" maskUnits="userSpaceOnUse" x="1287" y="510" width="92" height="88">
<path d="M1365.09 584.874C1382.85 567.868 1382.85 540.297 1365.09 523.292C1347.33 506.287 1318.55 506.287 1300.79 523.292C1283.03 540.297 1283.03 567.868 1300.79 584.874C1318.55 601.879 1347.33 601.879 1365.09 584.874Z" fill="white"/>
</mask>
<g mask="url(#mask32_1_247)">
<path opacity="0.8" d="M1313.63 530.17C1313.63 530.501 1312.99 530.766 1312.2 530.766C1311.41 530.766 1310.77 530.501 1310.77 530.17C1310.77 529.842 1311.41 529.574 1312.2 529.574C1312.99 529.574 1313.63 529.842 1313.63 530.17Z" fill="#FF0079"/>
</g>
<mask id="mask33_1_247" style="mask-type:luminance" maskUnits="userSpaceOnUse" x="1287" y="510" width="92" height="88">
<path d="M1365.09 584.874C1382.85 567.868 1382.85 540.297 1365.09 523.292C1347.33 506.287 1318.55 506.287 1300.79 523.292C1283.03 540.297 1283.03 567.868 1300.79 584.874C1318.55 601.879 1347.33 601.879 1365.09 584.874Z" fill="white"/>
</mask>
<g mask="url(#mask33_1_247)">
<path opacity="0.8" d="M1295.5 562.926C1297.13 562.926 1298.44 562.378 1298.44 561.703C1298.44 561.027 1297.13 560.479 1295.5 560.479C1293.88 560.479 1292.57 561.027 1292.57 561.703C1292.57 562.378 1293.88 562.926 1295.5 562.926Z" fill="#FF0079"/>
</g>
<mask id="mask34_1_247" style="mask-type:luminance" maskUnits="userSpaceOnUse" x="1287" y="510" width="92" height="88">
<path d="M1365.09 584.874C1382.85 567.868 1382.85 540.297 1365.09 523.292C1347.33 506.287 1318.55 506.287 1300.79 523.292C1283.03 540.297 1283.03 567.868 1300.79 584.874C1318.55 601.879 1347.33 601.879 1365.09 584.874Z" fill="white"/>
</mask>
<g mask="url(#mask34_1_247)">
<path opacity="0.8" d="M1311.69 578.807C1311.69 579.138 1311.04 579.403 1310.25 579.403C1309.46 579.403 1308.82 579.136 1308.82 578.807C1308.82 578.479 1309.46 578.211 1310.25 578.211C1311.04 578.211 1311.69 578.477 1311.69 578.807Z" fill="#FF0079"/>
</g>
<mask id="mask35_1_247" style="mask-type:luminance" maskUnits="userSpaceOnUse" x="1287" y="510" width="92" height="88">
<path d="M1365.09 584.874C1382.85 567.868 1382.85 540.297 1365.09 523.292C1347.33 506.287 1318.55 506.287 1300.79 523.292C1283.03 540.297 1283.03 567.868 1300.79 584.874C1318.55 601.879 1347.33 601.879 1365.09 584.874Z" fill="white"/>
</mask>
<g mask="url(#mask35_1_247)">
<path opacity="0.8" d="M1301.04 546.424C1301.83 546.424 1302.48 546.157 1302.48 545.827C1302.48 545.498 1301.83 545.231 1301.04 545.231C1300.25 545.231 1299.61 545.498 1299.61 545.827C1299.61 546.157 1300.25 546.424 1301.04 546.424Z" fill="#FF0079"/>
</g>
<path opacity="0.3" d="M1356.32 516.789C1361.46 523.836 1364.48 532.399 1364.48 541.643C1364.48 565.663 1344.15 585.138 1319.06 585.138C1310.51 585.138 1302.52 582.872 1295.69 578.936C1303.89 590.201 1317.52 597.578 1332.95 597.578C1358.03 597.578 1378.36 578.105 1378.36 554.083C1378.36 538.251 1369.53 524.399 1356.32 516.789Z" fill="white"/>
<path opacity="0.3" d="M1287.53 554.083C1287.53 555.107 1287.58 556.12 1287.66 557.127C1288.42 557.163 1289.18 557.183 1289.95 557.183C1315.03 557.183 1335.37 537.711 1335.37 513.689C1335.37 512.665 1335.32 511.651 1335.24 510.644C1334.48 510.609 1333.72 510.588 1332.95 510.588C1307.86 510.588 1287.53 530.062 1287.53 554.083Z" fill="white"/>
</g>
<defs>
<filter id="filter0_n_1_247" x="0" y="0" width="1440" height="906" filterUnits="userSpaceOnUse" color-interpolation-filters="sRGB">
<feFlood flood-opacity="0" result="BackgroundImageFix"/>
<feBlend mode="normal" in="SourceGraphic" in2="BackgroundImageFix" result="shape"/>
<feTurbulence type="fractalNoise" baseFrequency="2 2" stitchTiles="stitch" numOctaves="3" result="noise" seed="708" />
<feColorMatrix in="noise" type="luminanceToAlpha" result="alphaNoise" />
<feComponentTransfer in="alphaNoise" result="coloredNoise1">
<feFuncA type="discrete" tableValues="1 1 1 1 1 1 1 1 1 1 1 1 1 1 1 1 1 1 1 1 1 1 1 1 1 1 1 1 1 1 1 1 1 1 1 1 1 1 1 1 1 1 1 1 1 1 1 1 1 1 1 0 0 0 0 0 0 0 0 0 0 0 0 0 0 0 0 0 0 0 0 0 0 0 0 0 0 0 0 0 0 0 0 0 0 0 0 0 0 0 0 0 0 0 0 0 0 0 0 0 "/>
</feComponentTransfer>
<feComposite operator="in" in2="shape" in="coloredNoise1" result="noise1Clipped" />
<feFlood flood-color="rgba(0, 0, 0, 0.3)" result="color1Flood" />
<feComposite operator="in" in2="noise1Clipped" in="color1Flood" result="color1" />
<feMerge result="effect1_noise_1_247">
<feMergeNode in="shape" />
<feMergeNode in="color1" />
</feMerge>
</filter>
<linearGradient id="paint0_linear_1_247" x1="268.836" y1="187.056" x2="372.319" y2="315.045" gradientUnits="userSpaceOnUse">
<stop offset="0.0014" stop-color="white"/>
<stop offset="0.9967" stop-color="white" stop-opacity="0"/>
</linearGradient>
<linearGradient id="paint1_linear_1_247" x1="1249.34" y1="96.3524" x2="1472.99" y2="494.216" gradientUnits="userSpaceOnUse">
<stop offset="0.0014" stop-color="white"/>
<stop offset="0.9967" stop-color="white" stop-opacity="0"/>
</linearGradient>
<linearGradient id="paint2_linear_1_247" x1="759.662" y1="675.712" x2="868.308" y2="875.109" gradientUnits="userSpaceOnUse">
<stop offset="0.0014" stop-color="white"/>
<stop offset="0.9967" stop-color="white" stop-opacity="0"/>
</linearGradient>
<linearGradient id="paint3_linear_1_247" x1="1069.52" y1="663.117" x2="1109.01" y2="735.595" gradientUnits="userSpaceOnUse">
<stop offset="0.0014" stop-color="white"/>
<stop offset="0.9967" stop-color="white" stop-opacity="0"/>
</linearGradient>
<linearGradient id="paint4_linear_1_247" x1="81.6278" y1="649.679" x2="136.551" y2="750.478" gradientUnits="userSpaceOnUse">
<stop offset="0.0014" stop-color="white"/>
<stop offset="0.9967" stop-color="white" stop-opacity="0"/>
</linearGradient>
<linearGradient id="paint5_linear_1_247" x1="1333.63" y1="779.928" x2="1388.55" y2="880.728" gradientUnits="userSpaceOnUse">
<stop offset="0.0014" stop-color="white"/>
<stop offset="0.9967" stop-color="white" stop-opacity="0"/>
</linearGradient>
<linearGradient id="paint6_linear_1_247" x1="313.628" y1="54.9368" x2="368.551" y2="155.736" gradientUnits="userSpaceOnUse">
<stop offset="0.0014" stop-color="white"/>
<stop offset="0.9967" stop-color="white" stop-opacity="0"/>
</linearGradient>
<linearGradient id="paint7_linear_1_247" x1="1297.12" y1="295.782" x2="1375.38" y2="439.426" gradientUnits="userSpaceOnUse">
<stop offset="0.0014" stop-color="white"/>
<stop offset="0.9967" stop-color="white" stop-opacity="0"/>
</linearGradient>
<linearGradient id="paint8_linear_1_247" x1="104.332" y1="59.4979" x2="182.6" y2="203.141" gradientUnits="userSpaceOnUse">
<stop offset="0.0014" stop-color="white"/>
<stop offset="0.9967" stop-color="white" stop-opacity="0"/>
</linearGradient>
<clipPath id="clip0_1_247">
<rect width="1440" height="906" fill="white"/>
</clipPath>
</defs>
</svg>
